<svg width="1820" height="433" viewBox="0 0 1820 433" fill="none" xmlns="http://www.w3.org/2000/svg">
<g clip-path="url(#clip0_13_75)">
<path d="M290.79 274.567C290.79 180.892 353.817 115.022 446.504 115.022C539.191 115.022 594.061 175.33 594.061 271.848C594.061 282.847 593.567 291.622 592.455 302.003H384.589C392.869 332.651 415.855 352.424 449.84 352.424C476.164 352.424 496.431 342.043 506.936 317.327L585.41 351.806C557.481 407.171 508.048 432.876 445.515 432.876C353.323 432.876 290.79 367.625 290.79 274.444V274.567ZM508.048 241.076C500.386 213.147 480.118 195.598 447.74 195.598C415.361 195.598 395.093 213.641 385.701 241.076H508.048Z" fill="#FFFFFF"/>
<path d="M614.452 125.527H712.082V157.905H713.195C730.249 133.807 761.515 118.977 794.388 118.977C861.246 118.977 895.85 166.68 895.85 229.212V423.237H798.219V257.636C798.219 228.594 784.007 207.709 755.46 207.709C726.912 207.709 712.082 230.201 712.082 258.749V423.237H614.452V125.527Z" fill="#FFFFFF"/>
<path d="M916.612 275.679C916.612 184.723 978.65 119.471 1051.56 119.471C1087.16 119.471 1114.1 130.964 1133.87 155.063H1134.98C1134.49 146.783 1134.49 134.177 1134.49 125.403H1232.61V423.113H1134.49C1134.49 411.002 1134.49 405.07 1134.98 393.454H1133.87C1113.6 418.664 1082.83 431.27 1052.68 431.27C974.819 431.27 916.612 366.636 916.612 275.556V275.679ZM1135.97 275.185C1135.97 236.874 1111.25 207.215 1075.66 207.215C1040.07 207.215 1014.24 237.369 1014.24 275.679C1014.24 313.99 1039.45 342.538 1075.66 342.538C1111.87 342.538 1135.97 315.102 1135.97 275.061V275.185Z" fill="#FFFFFF"/>
<path d="M1260.05 0.461121H1357.68V423.113H1260.05V0.461121Z" fill="#FFFFFF"/>
<path d="M1482.74 125.527H1385.11V423.237H1482.74V125.527Z" fill="#FFFFFF"/>
<path d="M1482.74 0.461121H1385.11V98.0913H1482.74V0.461121Z" fill="#FFFFFF"/>
<path d="M1504.12 274.073C1504.12 181.386 1569.37 115.146 1662.06 115.146C1754.75 115.146 1820 181.51 1820 273.579C1820 365.647 1754.13 433.124 1662.06 433.124C1569.99 433.124 1504.12 366.76 1504.12 274.196V274.073ZM1722.37 273.579C1722.37 235.762 1699.38 204.496 1662.06 204.496C1624.74 204.496 1601.14 235.762 1601.14 274.073C1601.14 312.383 1624.74 343.65 1662.06 343.65C1699.38 343.65 1722.37 311.889 1722.37 273.455V273.579Z" fill="#FFFFFF"/>
<path d="M216.764 125.527L130.874 315.72L97.1359 241.2H0L82.1824 423.113H82.306H82.4295H179.565L313.9 125.527H216.764Z" fill="#FFFFFF"/>
</g>
<defs>
<clipPath id="clip0_13_75">
<rect width="1820" height="432.539" fill="white" transform="translate(0 0.461121)"/>
</clipPath>
</defs>
</svg>
